# Blender v3.2.0 OBJ File: ''
# www.blender.org
mtllib Arrow.mtl
o Cube_Cube.002
v -0.996101 0.038508 0.894895
v -0.996101 0.282250 0.894895
v -0.996101 0.038508 -0.971807
v -0.996101 0.282250 -0.971807
v 2.213032 0.038508 0.894895
v 2.213032 0.282250 0.894895
v 2.213032 0.038508 -0.971807
v 2.213032 0.282250 -0.971807
vt 0.375000 0.000000
vt 0.625000 0.000000
vt 0.625000 0.250000
vt 0.375000 0.250000
vt 0.625000 0.500000
vt 0.375000 0.500000
vt 0.625000 0.750000
vt 0.375000 0.750000
vt 0.625000 1.000000
vt 0.375000 1.000000
vt 0.125000 0.500000
vt 0.125000 0.750000
vt 0.875000 0.500000
vt 0.875000 0.750000
vn -1.0000 0.0000 0.0000
vn 0.0000 0.0000 -1.0000
vn 1.0000 0.0000 0.0000
vn 0.0000 0.0000 1.0000
vn 0.0000 -1.0000 0.0000
vn 0.0000 1.0000 0.0000
usemtl None
s off
f 1/1/1 2/2/1 4/3/1 3/4/1
f 3/4/2 4/3/2 8/5/2 7/6/2
f 7/6/3 8/5/3 6/7/3 5/8/3
f 5/8/4 6/7/4 2/9/4 1/10/4
f 3/11/5 7/6/5 5/8/5 1/12/5
f 8/5/6 4/13/6 2/14/6 6/7/6
o Cone
v -0.980292 0.320758 -0.038456
v -0.980292 0.317677 0.331727
v -0.980292 0.308550 0.687684
v -0.980292 0.293729 1.015736
v -0.980292 0.273784 1.303275
v -0.980292 0.249481 1.539253
v -0.980292 0.221754 1.714600
v -0.980292 0.191668 1.822579
v -0.980292 0.160379 1.859039
v -0.980292 0.129091 1.822579
v -0.980292 0.099005 1.714601
v -0.980292 0.071277 1.539253
v -0.980292 0.046974 1.303275
v -0.980292 0.027029 1.015736
v -0.980292 0.012208 0.687684
v -0.980292 0.003082 0.331727
v -0.980292 0.000000 -0.038456
v -0.980292 0.003082 -0.408638
v -0.980292 0.012208 -0.764595
v -0.980292 0.027029 -1.092647
v -0.980292 0.046974 -1.380187
v -0.980292 0.071277 -1.616164
v -0.980292 0.099005 -1.791512
v -0.980292 0.129091 -1.899490
v -0.980292 0.160379 -1.935950
v -0.980292 0.191668 -1.899490
v -0.980292 0.221754 -1.791512
v -0.980292 0.249481 -1.616165
v -0.980292 0.273784 -1.380187
v -0.980292 0.293729 -1.092647
v -0.980292 0.308550 -0.764595
v -0.980292 0.317677 -0.408638
v -2.708098 0.160379 -0.038456
vt 0.250000 0.490000
vt 0.250000 0.250000
vt 0.296822 0.485388
vt 0.341844 0.471731
vt 0.383337 0.449553
vt 0.419706 0.419706
vt 0.449553 0.383337
vt 0.471731 0.341844
vt 0.485388 0.296822
vt 0.490000 0.250000
vt 0.485388 0.203178
vt 0.471731 0.158156
vt 0.449553 0.116663
vt 0.419706 0.080294
vt 0.383337 0.050447
vt 0.341844 0.028269
vt 0.296822 0.014612
vt 0.250000 0.010000
vt 0.203178 0.014612
vt 0.158156 0.028269
vt 0.116663 0.050447
vt 0.080294 0.080294
vt 0.050447 0.116663
vt 0.028269 0.158156
vt 0.014612 0.203178
vt 0.010000 0.250000
vt 0.014612 0.296822
vt 0.028269 0.341844
vt 0.050447 0.383337
vt 0.080294 0.419706
vt 0.116663 0.449553
vt 0.158156 0.471731
vt 0.750000 0.490000
vt 0.796822 0.485388
vt 0.841844 0.471731
vt 0.883337 0.449553
vt 0.919706 0.419706
vt 0.949553 0.383337
vt 0.971731 0.341844
vt 0.985388 0.296822
vt 0.990000 0.250000
vt 0.985388 0.203178
vt 0.971731 0.158156
vt 0.949553 0.116663
vt 0.919706 0.080294
vt 0.883337 0.050447
vt 0.841844 0.028269
vt 0.796822 0.014612
vt 0.750000 0.010000
vt 0.703178 0.014612
vt 0.658156 0.028269
vt 0.616663 0.050447
vt 0.580294 0.080294
vt 0.550447 0.116663
vt 0.528269 0.158156
vt 0.514612 0.203178
vt 0.510000 0.250000
vt 0.514612 0.296822
vt 0.528269 0.341844
vt 0.550447 0.383337
vt 0.580294 0.419706
vt 0.616663 0.449553
vt 0.658156 0.471731
vt 0.703178 0.485388
vt 0.203178 0.485388
vn -0.0924 0.9957 0.0083
vn -0.0961 0.9950 0.0255
vn -0.1041 0.9936 0.0449
vn -0.1184 0.9906 0.0687
vn -0.1433 0.9845 0.1014
vn -0.1900 0.9697 0.1533
vn -0.2931 0.9210 0.2566
vn -0.5817 0.6173 0.5297
vn -0.5817 -0.6173 0.5297
vn -0.2931 -0.9210 0.2566
vn -0.1900 -0.9697 0.1533
vn -0.1433 -0.9845 0.1014
vn -0.1184 -0.9906 0.0687
vn -0.1041 -0.9936 0.0449
vn -0.0961 -0.9950 0.0255
vn -0.0924 -0.9957 0.0083
vn -0.0924 -0.9957 -0.0083
vn -0.0961 -0.9950 -0.0255
vn -0.1041 -0.9936 -0.0449
vn -0.1184 -0.9906 -0.0687
vn -0.1433 -0.9845 -0.1014
vn -0.1900 -0.9697 -0.1533
vn -0.2931 -0.9210 -0.2566
vn -0.5817 -0.6173 -0.5297
vn -0.5817 0.6173 -0.5297
vn -0.2931 0.9210 -0.2566
vn -0.1900 0.9697 -0.1533
vn -0.1434 0.9845 -0.1014
vn -0.1184 0.9906 -0.0687
vn -0.1041 0.9936 -0.0449
vn 1.0000 -0.0000 0.0000
vn -0.0961 0.9950 -0.0255
vn -0.0924 0.9957 -0.0083
usemtl None
s off
f 9/15/7 41/16/7 10/17/7
f 10/17/8 41/16/8 11/18/8
f 11/18/9 41/16/9 12/19/9
f 12/19/10 41/16/10 13/20/10
f 13/20/11 41/16/11 14/21/11
f 14/21/12 41/16/12 15/22/12
f 15/22/13 41/16/13 16/23/13
f 16/23/14 41/16/14 17/24/14
f 17/24/15 41/16/15 18/25/15
f 18/25/16 41/16/16 19/26/16
f 19/26/17 41/16/17 20/27/17
f 20/27/18 41/16/18 21/28/18
f 21/28/19 41/16/19 22/29/19
f 22/29/20 41/16/20 23/30/20
f 23/30/21 41/16/21 24/31/21
f 24/31/22 41/16/22 25/32/22
f 25/32/23 41/16/23 26/33/23
f 26/33/24 41/16/24 27/34/24
f 27/34/25 41/16/25 28/35/25
f 28/35/26 41/16/26 29/36/26
f 29/36/27 41/16/27 30/37/27
f 30/37/28 41/16/28 31/38/28
f 31/38/29 41/16/29 32/39/29
f 32/39/30 41/16/30 33/40/30
f 33/40/31 41/16/31 34/41/31
f 34/41/32 41/16/32 35/42/32
f 35/42/33 41/16/33 36/43/33
f 36/43/34 41/16/34 37/44/34
f 37/44/35 41/16/35 38/45/35
f 38/45/36 41/16/36 39/46/36
f 9/47/37 10/48/37 11/49/37 12/50/37 13/51/37 14/52/37 15/53/37 16/54/37 17/55/37 18/56/37 19/57/37 20/58/37 21/59/37 22/60/37 23/61/37 24/62/37 25/63/37 26/64/37 27/65/37 28/66/37 29/67/37 30/68/37 31/69/37 32/70/37 33/71/37 34/72/37 35/73/37 36/74/37 37/75/37 38/76/37 39/77/37 40/78/37
f 39/46/38 41/16/38 40/79/38
f 40/79/39 41/16/39 9/15/39
