# Blender v3.2.0 OBJ File: 'Gramophone.blend'
# www.blender.org
mtllib GramophoneHead.mtl
o Cube
v 1.648149 0.519148 0.059635
v 1.648149 0.351186 0.059635
v 1.709329 -0.030009 -0.089344
v 1.709329 0.351186 -0.089344
v 1.726209 -0.030009 -0.087667
v 1.726209 0.351186 -0.087667
v 1.742440 -0.030009 -0.082701
v 1.742440 0.351186 -0.082701
v 1.757399 -0.030009 -0.074636
v 1.757399 0.351186 -0.074636
v 1.770510 -0.030009 -0.063783
v 1.770510 0.351186 -0.063783
v 1.781271 -0.030009 -0.050559
v 1.781271 0.351186 -0.050559
v 1.789266 -0.030009 -0.035471
v 1.789266 0.351186 -0.035471
v 1.794190 -0.030009 -0.019100
v 1.794190 0.351186 -0.019100
v 1.795852 -0.030009 -0.002074
v 1.795852 0.351186 -0.002074
v 1.794190 -0.030009 0.014951
v 1.794190 0.351186 0.014951
v 1.789266 -0.030009 0.031322
v 1.789266 0.351186 0.031322
v 1.781271 -0.030009 0.046411
v 1.781271 0.351186 0.046411
v 1.770510 -0.030009 0.059635
v 1.770510 0.351186 0.059635
v 1.757399 -0.030009 0.070488
v 1.757399 0.351186 0.070488
v 1.742440 -0.030009 0.078553
v 1.742440 0.351186 0.078553
v 1.726209 -0.030009 0.083519
v 1.726209 0.351186 0.083519
v 1.709329 -0.030009 0.085196
v 1.709329 0.351186 0.085196
v 1.692450 -0.030009 0.083519
v 1.692450 0.351186 0.083519
v 1.676219 -0.030009 0.078553
v 1.676219 0.351186 0.078553
v 1.661260 -0.030009 0.070488
v 1.661260 0.351186 0.070488
v 1.648149 -0.030009 0.059635
v 1.648149 0.351186 0.059635
v 1.637388 -0.030009 0.046411
v 1.637388 0.351186 0.046411
v 1.629393 -0.030009 0.031322
v 1.629393 0.351186 0.031322
v 1.624469 -0.030009 0.014951
v 1.624469 0.351186 0.014951
v 1.622807 -0.030009 -0.002074
v 1.622807 0.351186 -0.002074
v 1.624469 -0.030009 -0.019100
v 1.624469 0.351186 -0.019100
v 1.629393 -0.030009 -0.035471
v 1.629393 0.351186 -0.035471
v 1.637388 -0.030009 -0.050559
v 1.637388 0.351186 -0.050559
v 1.648149 -0.030009 -0.063783
v 1.648149 0.351186 -0.063783
v 1.661260 -0.030009 -0.074636
v 1.661260 0.351186 -0.074636
v 1.676219 -0.030009 -0.082701
v 1.676219 0.351186 -0.082701
v 1.692450 -0.030009 -0.087667
v 1.692450 0.351186 -0.087667
v 1.648149 0.351186 -0.063783
v 1.648149 0.519148 -0.063783
v 1.770510 0.351186 0.059635
v 1.770510 0.519148 0.059635
v 1.770510 0.351186 -0.063783
v 1.770510 0.519148 -0.063783
v 0.150986 0.350460 -0.042939
v -0.177721 0.350460 -0.042939
v 1.648149 0.519148 0.007385
v 0.150986 0.519148 0.007385
v 1.648149 0.517534 0.021269
v 0.150986 0.517534 0.021269
v 1.648149 0.512755 0.034619
v 0.150986 0.512755 0.034619
v 1.648149 0.504995 0.046924
v 0.150986 0.504995 0.046924
v 1.648149 0.494551 0.057708
v 0.150986 0.494551 0.057708
v 1.648149 0.481824 0.066559
v 0.150986 0.481824 0.066559
v 1.648149 0.467305 0.073135
v 0.150986 0.467305 0.073135
v 1.648149 0.451551 0.077185
v 0.150986 0.451551 0.077185
v 1.648149 0.435167 0.078553
v 0.150986 0.435167 0.078552
v 1.648149 0.418783 0.077185
v 0.150986 0.418783 0.077185
v 1.648149 0.403028 0.073135
v 0.150986 0.403028 0.073135
v 1.648149 0.388509 0.066559
v 0.150986 0.388509 0.066559
v 1.648149 0.375783 0.057708
v 0.150986 0.375783 0.057708
v 1.648149 0.365339 0.046924
v 0.150986 0.365339 0.046924
v 1.648149 0.357578 0.034619
v 0.150986 0.357578 0.034619
v 1.648149 0.352799 0.021269
v 0.150986 0.352799 0.021269
v 1.648149 0.351186 0.007385
v 0.150986 0.351186 0.007385
v 1.648149 0.352799 -0.006499
v 0.150986 0.352799 -0.006499
v 1.648149 0.357578 -0.019850
v 0.150986 0.357578 -0.019850
v 1.648149 0.365339 -0.032154
v 0.150986 0.365339 -0.032154
v 1.648149 0.375783 -0.042939
v 0.150986 0.375783 -0.042939
v 1.648149 0.388509 -0.051789
v 0.150986 0.388509 -0.051789
v 1.648149 0.403028 -0.058366
v 0.150986 0.403028 -0.058366
v 1.648149 0.418783 -0.062416
v 0.150986 0.418783 -0.062416
v 1.648149 0.435167 -0.063783
v 0.150986 0.435167 -0.063783
v 1.648149 0.451551 -0.062416
v 0.150986 0.451551 -0.062416
v 1.648149 0.467305 -0.058366
v 0.150986 0.467305 -0.058366
v 1.648149 0.481824 -0.051789
v 0.150986 0.481824 -0.051789
v 1.648149 0.494551 -0.042939
v 0.150986 0.494550 -0.042939
v 1.648149 0.504995 -0.032154
v 0.150986 0.504995 -0.032154
v 1.648149 0.512755 -0.019850
v 0.150986 0.512755 -0.019850
v 1.648149 0.517534 -0.006499
v 0.150986 0.517534 -0.006499
v 0.150986 0.494550 -0.042939
v -0.177721 0.494550 -0.042939
v 0.150986 0.350460 0.084890
v -0.177721 0.350460 0.084889
v 0.150986 0.494550 0.084890
v -0.177721 0.494550 0.084889
v -0.095544 0.350460 -0.042939
v -0.111576 0.350460 -0.042150
v -0.126992 0.350460 -0.039812
v -0.141199 0.350460 -0.036016
v -0.153652 0.350460 -0.030909
v -0.163871 0.350460 -0.024685
v -0.171465 0.350460 -0.017584
v -0.176142 0.350460 -0.009879
v -0.177721 0.350460 -0.001865
v -0.176142 0.350460 0.006147
v -0.171465 0.350460 0.013853
v -0.163871 0.350460 0.020954
v -0.153652 0.350460 0.027178
v -0.141199 0.350460 0.032286
v -0.126992 0.350460 0.036081
v -0.111576 0.350460 0.038419
v -0.095544 0.350460 0.039208
v -0.079512 0.350460 0.038419
v -0.064096 0.350460 0.036081
v -0.049889 0.350460 0.032286
v -0.037436 0.350460 0.027178
v -0.027216 0.350460 0.020954
v -0.019622 0.350460 0.013853
v -0.014946 0.350460 0.006147
v -0.013367 0.350460 -0.001865
v -0.014946 0.350460 -0.009879
v -0.019623 0.350460 -0.017584
v -0.027216 0.350460 -0.024685
v -0.037436 0.350460 -0.030909
v -0.049889 0.350460 -0.036016
v -0.064096 0.350460 -0.039812
v -0.079512 0.350460 -0.042150
v -0.095544 0.165939 -0.001865
vt 1.000000 0.500000
vt 1.000000 1.000000
vt 0.968750 1.000000
vt 0.968750 0.500000
vt 0.968750 0.500000
vt 0.968750 1.000000
vt 0.937500 1.000000
vt 0.937500 0.500000
vt 1.000000 0.500000
vt 1.000000 1.000000
vt 0.968750 1.000000
vt 0.968750 0.500000
vt 0.968750 0.500000
vt 0.968750 1.000000
vt 0.937500 1.000000
vt 0.937500 0.500000
vt 0.937500 0.500000
vt 0.937500 1.000000
vt 0.906250 1.000000
vt 0.906250 0.500000
vt 0.937500 0.500000
vt 0.937500 1.000000
vt 0.906250 1.000000
vt 0.906250 0.500000
vt 0.906250 0.500000
vt 0.906250 1.000000
vt 0.875000 1.000000
vt 0.875000 0.500000
vt 0.875000 0.500000
vt 0.875000 1.000000
vt 0.843750 1.000000
vt 0.843750 0.500000
vt 0.906250 0.500000
vt 0.906250 1.000000
vt 0.875000 1.000000
vt 0.875000 0.500000
vt 0.250000 0.010000
vt 0.250000 0.250000
vt 0.203178 0.014612
vt 0.843750 0.500000
vt 0.843750 1.000000
vt 0.812500 1.000000
vt 0.812500 0.500000
vt 0.812500 0.500000
vt 0.812500 1.000000
vt 0.781250 1.000000
vt 0.781250 0.500000
vt 0.341844 0.471732
vt 0.383337 0.449553
vt 0.875000 0.500000
vt 0.875000 1.000000
vt 0.843750 1.000000
vt 0.843750 0.500000
vt 0.843750 0.500000
vt 0.843750 1.000000
vt 0.812500 1.000000
vt 0.812500 0.500000
vt 0.158156 0.028268
vt 0.781250 0.500000
vt 0.781250 1.000000
vt 0.750000 1.000000
vt 0.750000 0.500000
vt 0.750000 0.500000
vt 0.750000 1.000000
vt 0.718750 1.000000
vt 0.718750 0.500000
vt 0.419706 0.419706
vt 0.812500 0.500000
vt 0.812500 1.000000
vt 0.781250 1.000000
vt 0.781250 0.500000
vt 0.718750 0.500000
vt 0.718750 1.000000
vt 0.687500 1.000000
vt 0.687500 0.500000
vt 0.687500 0.500000
vt 0.687500 1.000000
vt 0.656250 1.000000
vt 0.656250 0.500000
vt 0.781250 0.500000
vt 0.781250 1.000000
vt 0.750000 1.000000
vt 0.750000 0.500000
vt 0.656250 0.500000
vt 0.656250 1.000000
vt 0.625000 1.000000
vt 0.625000 0.500000
vt 0.625000 0.500000
vt 0.625000 1.000000
vt 0.593750 1.000000
vt 0.593750 0.500000
vt 0.750000 0.500000
vt 0.750000 1.000000
vt 0.718750 1.000000
vt 0.718750 0.500000
vt 0.718750 0.500000
vt 0.718750 1.000000
vt 0.687500 1.000000
vt 0.687500 0.500000
vt 0.593750 0.500000
vt 0.593750 1.000000
vt 0.562500 1.000000
vt 0.562500 0.500000
vt 0.562500 0.500000
vt 0.562500 1.000000
vt 0.531250 1.000000
vt 0.531250 0.500000
vt 0.419706 0.080294
vt 0.383337 0.050447
vt 0.449553 0.383337
vt 0.471731 0.341844
vt 0.687500 0.500000
vt 0.687500 1.000000
vt 0.656250 1.000000
vt 0.656250 0.500000
vt 0.531250 0.500000
vt 0.531250 1.000000
vt 0.500000 1.000000
vt 0.500000 0.500000
vt 0.500000 0.500000
vt 0.500000 1.000000
vt 0.468750 1.000000
vt 0.468750 0.500000
vt 0.656250 0.500000
vt 0.656250 1.000000
vt 0.625000 1.000000
vt 0.625000 0.500000
vt 0.341844 0.028268
vt 0.485388 0.296822
vt 0.468750 0.500000
vt 0.468750 1.000000
vt 0.437500 1.000000
vt 0.437500 0.500000
vt 0.437500 0.500000
vt 0.437500 1.000000
vt 0.406250 1.000000
vt 0.406250 0.500000
vt 0.625000 0.500000
vt 0.625000 1.000000
vt 0.593750 1.000000
vt 0.593750 0.500000
vt 0.296822 0.014612
vt 0.406250 0.500000
vt 0.406250 1.000000
vt 0.375000 1.000000
vt 0.375000 0.500000
vt 0.375000 0.500000
vt 0.375000 1.000000
vt 0.343750 1.000000
vt 0.343750 0.500000
vt 0.343750 0.500000
vt 0.343750 1.000000
vt 0.312500 1.000000
vt 0.312500 0.500000
vt 0.593750 0.500000
vt 0.593750 1.000000
vt 0.562500 1.000000
vt 0.562500 0.500000
vt 0.281250 1.000000
vt 0.281250 0.500000
vt 0.562500 0.500000
vt 0.562500 1.000000
vt 0.531250 1.000000
vt 0.531250 0.500000
vt 0.250000 1.000000
vt 0.250000 0.500000
vt 0.218750 1.000000
vt 0.218750 0.500000
vt 0.375000 0.000000
vt 0.625000 0.000000
vt 0.625000 0.250000
vt 0.375000 0.250000
vt 0.187500 1.000000
vt 0.187500 0.500000
vt 0.375000 0.250000
vt 0.625000 0.250000
vt 0.625000 0.500000
vt 0.375000 0.500000
vt 0.531250 0.500000
vt 0.531250 1.000000
vt 0.500000 1.000000
vt 0.500000 0.500000
vt 0.156250 1.000000
vt 0.156250 0.500000
vt 0.375000 0.500000
vt 0.625000 0.500000
vt 0.625000 0.750000
vt 0.375000 0.750000
vt 0.125000 1.000000
vt 0.125000 0.500000
vt 0.375000 0.750000
vt 0.625000 0.750000
vt 0.625000 1.000000
vt 0.375000 1.000000
vt 0.093750 1.000000
vt 0.093750 0.500000
vt 0.125000 0.500000
vt 0.375000 0.500000
vt 0.375000 0.750000
vt 0.125000 0.750000
vt 0.500000 0.500000
vt 0.500000 1.000000
vt 0.468750 1.000000
vt 0.468750 0.500000
vt 0.062500 1.000000
vt 0.062500 0.500000
vt 0.625000 0.500000
vt 0.875000 0.500000
vt 0.875000 0.750000
vt 0.625000 0.750000
vt 0.971731 0.158156
vt 0.949553 0.116663
vt 0.919706 0.080294
vt 0.883337 0.050447
vt 0.841844 0.028268
vt 0.796822 0.014612
vt 0.750000 0.010000
vt 0.703179 0.014612
vt 0.658156 0.028268
vt 0.616664 0.050447
vt 0.580295 0.080294
vt 0.550447 0.116663
vt 0.528269 0.158156
vt 0.514611 0.203178
vt 0.510000 0.250000
vt 0.514611 0.296821
vt 0.528269 0.341844
vt 0.550447 0.383336
vt 0.580295 0.419705
vt 0.616664 0.449552
vt 0.658156 0.471731
vt 0.703179 0.485388
vt 0.750000 0.490000
vt 0.796822 0.485388
vt 0.841844 0.471731
vt 0.883337 0.449552
vt 0.919706 0.419705
vt 0.949553 0.383336
vt 0.971731 0.341844
vt 0.985389 0.296821
vt 0.990000 0.250000
vt 0.985389 0.203178
vt 0.031250 1.000000
vt 0.031250 0.500000
vt 0.468750 0.500000
vt 0.468750 1.000000
vt 0.437500 1.000000
vt 0.437500 0.500000
vt 0.437500 0.500000
vt 0.437500 1.000000
vt 0.406250 1.000000
vt 0.406250 0.500000
vt 0.000000 1.000000
vt 0.000000 0.500000
vt 0.050447 0.116663
vt 0.080295 0.080294
vt 0.116664 0.050447
vt 0.158156 0.028268
vt 0.203179 0.014612
vt 0.250000 0.010000
vt 0.296822 0.014612
vt 0.341844 0.028268
vt 0.383337 0.050447
vt 0.419706 0.080294
vt 0.449553 0.116663
vt 0.471731 0.158156
vt 0.485388 0.203178
vt 0.490000 0.250000
vt 0.485388 0.296821
vt 0.471731 0.341844
vt 0.449553 0.383336
vt 0.419706 0.419705
vt 0.383337 0.449552
vt 0.341844 0.471731
vt 0.296822 0.485388
vt 0.250000 0.490000
vt 0.203179 0.485388
vt 0.158156 0.471731
vt 0.116664 0.449552
vt 0.080295 0.419705
vt 0.050447 0.383336
vt 0.028269 0.341844
vt 0.014612 0.296821
vt 0.010000 0.250000
vt 0.014612 0.203178
vt 0.028269 0.158156
vt 0.296822 0.485388
vt 0.375000 1.000000
vt 0.375000 0.500000
vt 0.449553 0.116663
vt 0.343750 1.000000
vt 0.343750 0.500000
vt 0.312500 1.000000
vt 0.312500 0.500000
vt 0.250000 0.490000
vt 0.281250 1.000000
vt 0.281250 0.500000
vt 0.471731 0.158156
vt 0.250000 1.000000
vt 0.250000 0.500000
vt 0.218750 1.000000
vt 0.218750 0.500000
vt 0.375000 0.000000
vt 0.625000 0.000000
vt 0.625000 0.250000
vt 0.375000 0.250000
vt 0.187500 1.000000
vt 0.187500 0.500000
vt 0.375000 0.250000
vt 0.625000 0.250000
vt 0.625000 0.500000
vt 0.375000 0.500000
vt 0.485388 0.203178
vt 0.156250 1.000000
vt 0.156250 0.500000
vt 0.375000 0.500000
vt 0.625000 0.500000
vt 0.625000 0.750000
vt 0.375000 0.750000
vt 0.125000 1.000000
vt 0.125000 0.500000
vt 0.375000 0.750000
vt 0.625000 0.750000
vt 0.625000 1.000000
vt 0.375000 1.000000
vt 0.093750 1.000000
vt 0.093750 0.500000
vt 0.125000 0.500000
vt 0.375000 0.500000
vt 0.375000 0.750000
vt 0.125000 0.750000
vt 0.490000 0.250000
vt 0.062500 1.000000
vt 0.062500 0.500000
vt 0.625000 0.500000
vt 0.875000 0.500000
vt 0.875000 0.750000
vt 0.625000 0.750000
vt 0.919705 0.080294
vt 0.883336 0.050448
vt 0.841844 0.028269
vt 0.796821 0.014612
vt 0.750000 0.010000
vt 0.703178 0.014612
vt 0.658156 0.028269
vt 0.616663 0.050448
vt 0.580294 0.080294
vt 0.550447 0.116664
vt 0.528269 0.158156
vt 0.514611 0.203179
vt 0.510000 0.250000
vt 0.514611 0.296822
vt 0.528269 0.341844
vt 0.550447 0.383337
vt 0.580294 0.419706
vt 0.616663 0.449553
vt 0.658156 0.471731
vt 0.703178 0.485388
vt 0.750000 0.490000
vt 0.796821 0.485388
vt 0.841844 0.471731
vt 0.883336 0.449553
vt 0.919705 0.419706
vt 0.949552 0.383337
vt 0.971731 0.341844
vt 0.985389 0.296822
vt 0.990000 0.250000
vt 0.985389 0.203179
vt 0.971731 0.158156
vt 0.949552 0.116664
vt 0.031250 1.000000
vt 0.031250 0.500000
vt 0.116663 0.050447
vt 0.000000 1.000000
vt 0.000000 0.500000
vt 0.250000 0.010000
vt 0.296822 0.014612
vt 0.341844 0.028269
vt 0.383337 0.050447
vt 0.419705 0.080294
vt 0.449553 0.116663
vt 0.471731 0.158156
vt 0.485388 0.203178
vt 0.490000 0.250000
vt 0.485388 0.296821
vt 0.471731 0.341844
vt 0.449553 0.383337
vt 0.419705 0.419706
vt 0.383337 0.449552
vt 0.341844 0.471731
vt 0.296822 0.485388
vt 0.250000 0.490000
vt 0.203178 0.485388
vt 0.158156 0.471731
vt 0.116663 0.449552
vt 0.080294 0.419705
vt 0.050447 0.383337
vt 0.028269 0.341844
vt 0.014611 0.296821
vt 0.010000 0.250000
vt 0.014611 0.203178
vt 0.028269 0.158156
vt 0.050447 0.116663
vt 0.080294 0.080294
vt 0.116663 0.050447
vt 0.158156 0.028269
vt 0.203178 0.014612
vt 0.080294 0.080294
vt 0.050447 0.116663
vt 0.028269 0.158156
vt 0.014612 0.203178
vt 0.010000 0.250000
vt 0.014612 0.296822
vt 0.028269 0.341844
vt 0.050447 0.383337
vt 0.080294 0.419706
vt 0.116663 0.449553
vt 0.158156 0.471732
vt 0.919706 0.419706
vt 0.949553 0.383337
vt 0.971731 0.341844
vt 0.985388 0.296822
vt 0.990000 0.250000
vt 0.985388 0.203178
vt 0.971731 0.158156
vt 0.949553 0.116663
vt 0.919706 0.080294
vt 0.883337 0.050447
vt 0.841844 0.028268
vt 0.796822 0.014612
vt 0.750000 0.010000
vt 0.703178 0.014612
vt 0.658156 0.028268
vt 0.616663 0.050447
vt 0.580294 0.080294
vt 0.550447 0.116663
vt 0.528269 0.158156
vt 0.514612 0.203178
vt 0.510000 0.250000
vt 0.514612 0.296822
vt 0.528269 0.341844
vt 0.550447 0.383337
vt 0.580294 0.419706
vt 0.616663 0.449553
vt 0.658156 0.471732
vt 0.703178 0.485388
vt 0.750000 0.490000
vt 0.796822 0.485388
vt 0.841844 0.471732
vt 0.883337 0.449553
vt 0.203178 0.485388
vn 0.0000 -0.5710 0.8210
vn 0.0000 0.5710 0.8210
vn -0.7757 0.0000 0.6311
vn 0.9576 0.0000 0.2880
vn -0.6376 0.0000 0.7703
vn -0.0000 0.9415 0.3370
vn 0.9953 0.0000 0.0972
vn -0.4746 0.0000 0.8802
vn 0.0000 -0.9933 0.1155
vn 0.0480 -0.2170 0.9750
vn 0.9953 0.0000 -0.0972
vn -0.2926 0.0000 0.9562
vn -0.2508 -0.2358 -0.9389
vn 0.0000 -0.7183 0.6957
vn 0.0000 0.4126 0.9109
vn 0.1461 -0.2231 0.9638
vn 0.9576 0.0000 -0.2880
vn -0.0988 0.0000 0.9951
vn -0.3668 -0.2563 -0.8943
vn -0.0000 0.8458 0.5335
vn 0.8836 0.0000 -0.4683
vn 0.0988 0.0000 0.9951
vn 0.0000 -0.9933 -0.1155
vn 0.7757 0.0000 -0.6311
vn 0.2926 0.0000 0.9562
vn 0.0000 -0.8458 0.5335
vn -0.0000 0.2490 0.9685
vn 0.6377 0.0000 -0.7703
vn 0.4746 0.0000 0.8802
vn -0.3668 -0.2563 0.8943
vn -0.6460 -0.3247 -0.6908
vn -0.0000 0.7183 0.6957
vn 0.4745 0.0000 -0.8802
vn 0.6376 0.0000 0.7703
vn 0.0000 -0.9415 -0.3370
vn -0.2508 -0.2358 0.9389
vn -0.7948 -0.3681 -0.4824
vn 0.2926 0.0000 -0.9562
vn 0.7757 0.0000 0.6311
vn 0.0000 -0.9415 0.3370
vn -0.0480 -0.2170 0.9750
vn 0.0989 0.0000 -0.9951
vn 0.8836 0.0000 0.4682
vn -0.1461 -0.2231 0.9638
vn -0.8836 0.0000 0.4682
vn -0.0000 0.9933 0.1155
vn -0.9576 0.0000 0.2880
vn 0.0000 -0.4126 0.9109
vn -0.9953 0.0000 0.0972
vn -0.9953 0.0000 -0.0972
vn 0.0000 1.0000 0.0000
vn -0.4984 -0.2858 -0.8185
vn -0.9576 0.0000 -0.2880
vn 0.0000 -1.0000 0.0000
vn 0.0000 -0.2490 0.9685
vn -0.8836 0.0000 -0.4683
vn 0.0000 0.0000 1.0000
vn -0.7757 0.0000 -0.6311
vn 1.0000 0.0000 0.0000
vn -0.6377 0.0000 -0.7703
vn 0.0000 0.0000 -1.0000
vn -0.0000 -0.0832 0.9965
vn -0.4745 0.0000 -0.8802
vn -1.0000 0.0000 0.0000
vn -0.2926 0.0000 -0.9562
vn -0.0000 0.0832 0.9965
vn 0.0000 -0.8458 -0.5335
vn -0.0989 0.0000 -0.9951
vn -0.1461 -0.2231 -0.9638
vn 0.0000 -0.7184 -0.6957
vn -0.4985 -0.2858 0.8184
vn 0.0000 -0.5710 -0.8210
vn 0.0000 -0.4126 -0.9109
vn -0.0480 -0.2170 -0.9750
vn 0.0000 -0.2490 -0.9685
vn -0.6460 -0.3247 0.6908
vn 0.0000 -0.0832 -0.9965
vn 0.0000 0.0832 -0.9965
vn 0.0000 0.2490 -0.9685
vn -0.7948 -0.3681 0.4824
vn 0.0000 0.4126 -0.9109
vn -0.0000 0.5710 -0.8210
vn -0.0000 0.7184 -0.6957
vn -0.8991 -0.4004 0.1772
vn -0.0000 0.8458 -0.5335
vn -0.0000 0.9415 -0.3370
vn -0.8991 -0.4004 -0.1772
vn 0.2508 -0.2358 0.9389
vn -0.0000 0.9933 -0.1155
vn 0.3668 -0.2563 0.8943
vn 0.4985 -0.2858 0.8184
vn 0.6460 -0.3247 0.6908
vn 0.7948 -0.3681 0.4824
vn 0.8991 -0.4004 0.1772
vn 0.8991 -0.4004 -0.1772
vn 0.7948 -0.3681 -0.4824
vn 0.6460 -0.3247 -0.6908
vn 0.4984 -0.2858 -0.8185
vn 0.3668 -0.2563 -0.8943
vn 0.2508 -0.2358 -0.9389
vn 0.1461 -0.2231 -0.9638
vn 0.0480 -0.2170 -0.9750
usemtl Material
s off
f 97/1/1 98/2/1 100/3/1 99/4/1
f 83/5/2 84/6/2 86/7/2 85/8/2
f 43/9/3 44/10/3 46/11/3 45/12/3
f 21/13/4 22/14/4 24/15/4 23/16/4
f 41/17/5 42/18/5 44/19/5 43/20/5
f 77/21/6 78/22/6 80/23/6 79/24/6
f 19/25/7 20/26/7 22/27/7 21/28/7
f 39/29/8 40/30/8 42/31/8 41/32/8
f 105/33/9 106/34/9 108/35/9 107/36/9
f 161/37/10 177/38/10 162/39/10
f 17/40/11 18/41/11 20/42/11 19/43/11
f 37/44/12 38/45/12 40/46/12 39/47/12
f 147/48/13 177/38/13 148/49/13
f 99/50/14 100/51/14 102/52/14 101/53/14
f 85/54/15 86/55/15 88/56/15 87/57/15
f 162/39/16 177/38/16 163/58/16
f 15/59/17 16/60/17 18/61/17 17/62/17
f 35/63/18 36/64/18 38/65/18 37/66/18
f 148/49/19 177/38/19 149/67/19
f 79/68/20 80/69/20 82/70/20 81/71/20
f 13/72/21 14/73/21 16/74/21 15/75/21
f 33/76/22 34/77/22 36/78/22 35/79/22
f 107/80/23 108/81/23 110/82/23 109/83/23
f 11/84/24 12/85/24 14/86/24 13/87/24
f 31/88/25 32/89/25 34/90/25 33/91/25
f 101/92/26 102/93/26 104/94/26 103/95/26
f 87/96/27 88/97/27 90/98/27 89/99/27
f 9/100/28 10/101/28 12/102/28 11/103/28
f 29/104/29 30/105/29 32/106/29 31/107/29
f 157/108/30 177/38/30 158/109/30
f 150/110/31 177/38/31 151/111/31
f 81/112/32 82/113/32 84/114/32 83/115/32
f 7/116/33 8/117/33 10/118/33 9/119/33
f 27/120/34 28/121/34 30/122/34 29/123/34
f 109/124/35 110/125/35 112/126/35 111/127/35
f 158/109/36 177/38/36 159/128/36
f 151/111/37 177/38/37 152/129/37
f 5/130/38 6/131/38 8/132/38 7/133/38
f 25/134/39 26/135/39 28/136/39 27/137/39
f 103/138/40 104/139/40 106/140/40 105/141/40
f 160/142/41 177/38/41 161/37/41
f 3/143/42 4/144/42 6/145/42 5/146/42
f 23/147/43 24/148/43 26/149/43 25/150/43
f 159/128/44 177/38/44 160/142/44
f 45/151/45 46/152/45 48/153/45 47/154/45
f 75/155/46 76/156/46 78/157/46 77/158/46
f 47/154/47 48/153/47 50/159/47 49/160/47
f 95/161/48 96/162/48 98/163/48 97/164/48
f 49/160/49 50/159/49 52/165/49 51/166/49
f 51/166/50 52/165/50 54/167/50 53/168/50
f 72/169/51 68/170/51 1/171/51 70/172/51
f 149/67/52 177/38/52 150/110/52
f 53/168/53 54/167/53 56/173/53 55/174/53
f 67/175/54 71/176/54 69/177/54 2/178/54
f 93/179/55 94/180/55 96/181/55 95/182/55
f 55/174/56 56/173/56 58/183/56 57/184/56
f 69/185/57 70/186/57 1/187/57 2/188/57
f 57/184/58 58/183/58 60/189/58 59/190/58
f 71/191/59 72/192/59 70/193/59 69/194/59
f 59/190/60 60/189/60 62/195/60 61/196/60
f 67/197/61 68/198/61 72/199/61 71/200/61
f 91/201/62 92/202/62 94/203/62 93/204/62
f 61/196/63 62/195/63 64/205/63 63/206/63
f 2/207/64 1/208/64 68/209/64 67/210/64
f 23/211/54 25/212/54 27/213/54 29/214/54 31/215/54 33/216/54 35/217/54 37/218/54 39/219/54 41/220/54 43/221/54 45/222/54 47/223/54 49/224/54 51/225/54 53/226/54 55/227/54 57/228/54 59/229/54 61/230/54 63/231/54 65/232/54 3/233/54 5/234/54 7/235/54 9/236/54 11/237/54 13/238/54 15/239/54 17/240/54 19/241/54 21/242/54
f 63/206/65 64/205/65 66/243/65 65/244/65
f 89/245/66 90/246/66 92/247/66 91/248/66
f 111/249/67 112/250/67 114/251/67 113/252/67
f 65/244/68 66/243/68 4/253/68 3/254/68
f 46/255/51 44/256/51 42/257/51 40/258/51 38/259/51 36/260/51 34/261/51 32/262/51 30/263/51 28/264/51 26/265/51 24/266/51 22/267/51 20/268/51 18/269/51 16/270/51 14/271/51 12/272/51 10/273/51 8/274/51 6/275/51 4/276/51 66/277/51 64/278/51 62/279/51 60/280/51 58/281/51 56/282/51 54/283/51 52/284/51 50/285/51 48/286/51
f 146/287/69 177/38/69 147/48/69
f 113/252/70 114/251/70 116/288/70 115/289/70
f 156/290/71 177/38/71 157/108/71
f 115/289/72 116/288/72 118/291/72 117/292/72
f 117/292/73 118/291/73 120/293/73 119/294/73
f 145/295/74 177/38/74 146/287/74
f 119/294/75 120/293/75 122/296/75 121/297/75
f 155/298/76 177/38/76 156/290/76
f 121/297/77 122/296/77 124/299/77 123/300/77
f 123/300/78 124/299/78 126/301/78 125/302/78
f 144/303/64 140/304/64 74/305/64 142/306/64
f 125/302/79 126/301/79 128/307/79 127/308/79
f 139/309/59 143/310/59 141/311/59 73/312/59
f 154/313/80 177/38/80 155/298/80
f 127/308/81 128/307/81 130/314/81 129/315/81
f 141/316/54 142/317/54 74/318/54 73/319/54
f 129/315/82 130/314/82 132/320/82 131/321/82
f 143/322/57 144/323/57 142/324/57 141/325/57
f 131/321/83 132/320/83 134/326/83 133/327/83
f 139/328/51 140/329/51 144/330/51 143/331/51
f 153/332/84 177/38/84 154/313/84
f 133/327/85 134/326/85 136/333/85 135/334/85
f 73/335/61 74/336/61 140/337/61 139/338/61
f 99/339/59 101/340/59 103/341/59 105/342/59 107/343/59 109/344/59 111/345/59 113/346/59 115/347/59 117/348/59 119/349/59 121/350/59 123/351/59 125/352/59 127/353/59 129/354/59 131/355/59 133/356/59 135/357/59 137/358/59 75/359/59 77/360/59 79/361/59 81/362/59 83/363/59 85/364/59 87/365/59 89/366/59 91/367/59 93/368/59 95/369/59 97/370/59
f 135/334/86 136/333/86 138/371/86 137/372/86
f 152/129/87 177/38/87 153/332/87
f 163/58/88 177/38/88 164/373/88
f 137/372/89 138/371/89 76/374/89 75/375/89
f 108/376/64 106/377/64 104/378/64 102/379/64 100/380/64 98/381/64 96/382/64 94/383/64 92/384/64 90/385/64 88/386/64 86/387/64 84/388/64 82/389/64 80/390/64 78/391/64 76/392/64 138/393/64 136/394/64 134/395/64 132/396/64 130/397/64 128/398/64 126/399/64 124/400/64 122/401/64 120/402/64 118/403/64 116/404/64 114/405/64 112/406/64 110/407/64
f 164/373/90 177/38/90 165/408/90
f 165/408/91 177/38/91 166/409/91
f 166/409/92 177/38/92 167/410/92
f 167/410/93 177/38/93 168/411/93
f 168/411/94 177/38/94 169/412/94
f 169/412/95 177/38/95 170/413/95
f 170/413/96 177/38/96 171/414/96
f 171/414/97 177/38/97 172/415/97
f 172/415/98 177/38/98 173/416/98
f 173/416/99 177/38/99 174/417/99
f 174/417/100 177/38/100 175/418/100
f 149/419/51 150/420/51 151/421/51 152/422/51 153/423/51 154/424/51 155/425/51 156/426/51 157/427/51 158/428/51 159/429/51 160/430/51 161/431/51 162/432/51 163/433/51 164/434/51 165/435/51 166/436/51 167/437/51 168/438/51 169/439/51 170/440/51 171/441/51 172/442/51 173/443/51 174/444/51 175/445/51 176/446/51 145/447/51 146/448/51 147/449/51 148/450/51
f 175/418/101 177/38/101 176/451/101
f 176/451/102 177/38/102 145/295/102
